<?xml version="1.0" standalone="no"?>
<!DOCTYPE svg PUBLIC "-//W3C//DTD SVG 20010904//EN"
 "http://www.w3.org/TR/2001/REC-SVG-20010904/DTD/svg10.dtd">
<svg version="1.0" xmlns="http://www.w3.org/2000/svg"
 width="512.000000pt" height="512.000000pt" viewBox="0 0 512.000000 512.000000"
 preserveAspectRatio="xMidYMid meet">
<metadata>
Created by potrace 1.14, written by Peter Selinger 2001-2017
</metadata>
<g transform="translate(0.000000,512.000000) scale(0.100000,-0.100000)"
fill="#000000" stroke="none">
<path d="M3975 5101 c-202 -43 -359 -126 -498 -266 -80 -79 -124 -142 -330
-466 l-157 -246 -72 14 c-108 21 -272 12 -371 -21 -156 -52 -234 -105 -401
-274 -115 -116 -121 -120 -177 -131 -273 -54 -496 -277 -560 -560 -11 -52 -20
-63 -145 -188 -182 -180 -242 -276 -285 -453 -20 -83 -20 -246 1 -334 9 -40 8
-51 -2 -57 -7 -4 -76 -48 -153 -98 -77 -49 -167 -107 -200 -127 -247 -154
-368 -256 -452 -379 -118 -175 -171 -353 -168 -560 2 -111 6 -149 31 -240 65
-248 255 -480 489 -598 62 -31 185 -72 245 -82 25 -4 54 -9 65 -11 71 -14 269
1 415 31 14 3 54 10 89 16 36 5 67 11 70 13 3 2 26 7 51 10 25 3 56 8 70 11
110 24 112 24 150 0 107 -67 226 -99 375 -99 160 0 209 14 482 135 97 43 134
59 260 113 l132 57 53 -41 c122 -92 281 -143 446 -142 46 1 96 3 110 7 15 3
37 7 50 10 48 9 64 14 147 50 103 45 180 114 637 572 303 304 479 489 503 527
34 54 99 196 90 196 -3 0 0 11 5 24 20 54 30 246 16 295 -3 9 -8 32 -11 51
-14 82 -61 187 -127 281 l-39 56 34 74 c19 41 46 102 61 136 14 35 38 89 52
120 82 181 124 284 140 346 20 75 26 232 12 307 -13 76 -52 182 -88 247 -17
30 -29 62 -26 71 5 16 14 63 21 107 2 11 9 45 14 75 6 30 13 66 16 80 3 13 7
40 10 60 3 20 8 47 11 60 6 32 22 124 29 175 9 63 6 204 -6 270 -61 347 -301
630 -626 741 -122 41 -150 46 -293 49 -79 2 -140 -3 -195 -14z m350 -306 c211
-62 366 -206 438 -406 33 -92 49 -236 33 -314 -2 -11 -7 -40 -11 -65 -4 -25
-9 -54 -11 -65 -2 -11 -6 -32 -9 -46 -3 -14 -12 -61 -20 -105 -8 -43 -15 -81
-15 -83 0 -2 -10 3 -22 11 -50 32 -161 65 -348 102 -67 13 -770 167 -805 176
-22 6 -51 13 -65 15 -120 22 -181 39 -176 52 18 45 311 487 356 537 91 98 235
180 356 202 16 3 30 7 32 8 10 11 216 -4 267 -19z m-1425 -959 c14 -3 88 -19
165 -36 77 -17 158 -35 180 -40 22 -6 146 -32 275 -60 129 -28 253 -54 275
-60 69 -16 149 -34 165 -36 8 -1 24 -4 35 -7 57 -14 339 -75 379 -83 16 -2 32
-6 35 -8 3 -2 24 -7 46 -10 67 -10 180 -72 234 -128 116 -120 160 -306 107
-454 -32 -91 -229 -524 -238 -524 -5 0 -41 19 -79 43 -39 23 -78 47 -87 52
-10 6 -190 114 -400 240 -210 127 -390 235 -400 240 -16 9 -307 184 -342 206
-70 43 -484 289 -487 289 -2 0 -19 11 -37 25 -18 14 -36 25 -39 25 -3 0 -57
30 -119 68 -62 37 -126 73 -143 81 l-30 13 55 49 c57 51 154 106 205 115 16 3
32 8 35 11 6 6 174 -2 210 -11z m-634 -438 c52 -21 2124 -1256 2229 -1328 124
-86 197 -222 197 -365 0 -104 -21 -173 -75 -255 -46 -69 -893 -912 -957 -952
-84 -54 -137 -68 -245 -68 -111 -1 -210 38 -293 113 -37 35 -101 124 -158 222
-35 61 -830 1386 -849 1415 -12 19 -67 109 -120 200 -54 91 -105 176 -114 190
-77 123 -145 244 -162 290 -55 145 -16 320 96 436 118 121 301 163 451 102z
m-796 -719 c0 -6 159 -278 210 -359 20 -32 165 -276 176 -295 6 -11 26 -45 45
-75 19 -31 39 -64 46 -75 6 -11 168 -281 360 -599 191 -319 350 -584 352 -589
2 -5 18 -32 37 -60 19 -28 34 -56 34 -62 0 -6 -55 -35 -122 -65 -68 -29 -154
-68 -193 -85 -195 -89 -257 -109 -343 -111 -133 -3 -234 37 -329 132 -69 68
-106 138 -129 242 -8 37 -23 108 -34 157 -10 50 -37 173 -60 275 -22 102 -43
196 -45 211 -3 14 -18 85 -35 159 -17 74 -33 145 -35 159 -6 34 -11 56 -25
116 -17 74 -17 74 -34 150 -8 39 -17 82 -20 95 -2 14 -16 77 -31 140 -59 249
-34 383 94 523 50 54 56 57 68 41 7 -10 13 -21 13 -25z m-405 -891 c16 -68 66
-294 80 -363 9 -44 18 -87 20 -95 2 -8 13 -59 25 -114 22 -100 26 -119 35
-158 3 -13 7 -32 9 -43 3 -16 59 -271 81 -370 3 -11 8 -36 11 -55 4 -19 19
-69 35 -110 30 -79 34 -95 22 -96 -9 0 -89 -14 -118 -21 -287 -59 -407 -59
-557 2 -445 181 -546 773 -187 1094 43 38 514 349 531 350 4 1 10 -9 13 -21z"/>
</g>
</svg>
